HIERARCHY
ROOT Hips
{
	OFFSET -0.001795 -0.223333 0.028219
	CHANNELS 6 Xposition Yposition Zposition Zrotation Yrotation Xrotation 
	JOINT LeftUpLeg
	{
		OFFSET 0.069520 -0.091406 -0.006815
		CHANNELS 3 Zrotation Yrotation Xrotation
		JOINT LeftLeg
		{
			OFFSET 0.034277 -0.375199 -0.004496
			CHANNELS 3 Zrotation Yrotation Xrotation
			JOINT LeftFoot
			{
				OFFSET -0.013596 -0.397961 -0.043693
				CHANNELS 3 Zrotation Yrotation Xrotation
				JOINT LeftToe
				{
					OFFSET 0.026358 -0.055791 0.119288
					CHANNELS 3 Zrotation Yrotation Xrotation
					End Site
					{
						OFFSET 0.000000 0.000000 0.000000
					}
				}
			}
		}
	}
	JOINT RightUpLeg
	{
		OFFSET -0.067670 -0.090522 -0.004320
		CHANNELS 3 Zrotation Yrotation Xrotation
		JOINT RightLeg
		{
			OFFSET -0.038290 -0.382569 -0.008850
			CHANNELS 3 Zrotation Yrotation Xrotation
			JOINT RightFoot
			{
				OFFSET 0.015774 -0.398415 -0.042312
				CHANNELS 3 Zrotation Yrotation Xrotation
				JOINT RightToe
				{
					OFFSET -0.025372 -0.048144 0.123348
					CHANNELS 3 Zrotation Yrotation Xrotation
					End Site
					{
						OFFSET 0.000000 0.000000 0.000000
					}
				}
			}
		}
	}
	JOINT Spine
	{
		OFFSET -0.002533 0.108963 -0.026696
		CHANNELS 3 Zrotation Yrotation Xrotation
		JOINT Spine1
		{
			OFFSET 0.005487 0.135180 0.001092
			CHANNELS 3 Zrotation Yrotation Xrotation
			JOINT Spine2
			{
				OFFSET 0.001457 0.052922 0.025425
				CHANNELS 3 Zrotation Yrotation Xrotation
				JOINT Neck
				{
					OFFSET -0.002778 0.213870 -0.042857
					CHANNELS 3 Zrotation Yrotation Xrotation
					JOINT Head
					{
						OFFSET 0.005152 0.064970 0.051349
						CHANNELS 3 Zrotation Yrotation Xrotation
						End Site
						{
							OFFSET 0.000000 0.000000 0.000000
						}
					}
				}
				JOINT LeftShoulder
				{
					OFFSET 0.078845 0.121749 -0.034090
					CHANNELS 3 Zrotation Yrotation Xrotation
					JOINT LeftArm
					{
						OFFSET 0.090977 0.030469 -0.008868
						CHANNELS 3 Zrotation Yrotation Xrotation
						JOINT LeftForeArm
						{
							OFFSET 0.259612 -0.012772 -0.027456
							CHANNELS 3 Zrotation Yrotation Xrotation
							JOINT LeftHand
							{
								OFFSET 0.249234 0.008986 -0.001171
								CHANNELS 3 Zrotation Yrotation Xrotation
								End Site
								{
									OFFSET 0.000000 0.000000 0.000000
								}
							}
						}
					}
				}
				JOINT RightShoulder
				{
					OFFSET -0.081759 0.118833 -0.038615
					CHANNELS 3 Zrotation Yrotation Xrotation
					JOINT RightArm
					{
						OFFSET -0.096012 0.032551 -0.009143
						CHANNELS 3 Zrotation Yrotation Xrotation
						JOINT RightForeArm
						{
							OFFSET -0.253742 -0.013329 -0.021401
							CHANNELS 3 Zrotation Yrotation Xrotation
							JOINT RightHand
							{
								OFFSET -0.255298 0.007772 -0.005559
								CHANNELS 3 Zrotation Yrotation Xrotation
								End Site
								{
									OFFSET 0.000000 0.000000 0.000000
								}
							}
						}
					}
				}
			}
		}
	}
}
MOTION
Frames: 6
Frame Time: 0.050000
0.000000 1.152461 0.000000 -1.580409 3.622439 -4.115394 3.366055 0.506366 10.152578 -4.030468 0.391279 -6.827602 2.239480 11.912984 26.819385 0.000000 0.000000 0.000000 0.178655 -0.690047 6.389640 1.815363 -0.151656 2.731607 -0.435060 -8.853741 27.359769 0.000000 0.000000 0.000000 -3.327782 -0.335218 18.534199 12.186969 -0.595862 -38.212271 -6.033366 4.477618 31.255225 1.397313 0.800237 -13.414009 0.000000 0.000000 0.000000 -47.077660 -2.472305 -5.930200 -31.166183 5.981656 -5.957672 -11.146564 -22.708346 3.109729 0.000000 0.000000 0.000000 42.687077 4.946903 5.097317 34.025637 -0.831535 -6.719546 8.413923 31.719098 3.657873 0.000000 0.000000 0.000000 
0.000346 1.155278 0.000188 -2.162841 3.148758 -3.067989 4.048014 0.412346 9.575388 -3.843032 0.384726 -7.466179 3.058236 12.795054 26.777394 0.000000 0.000000 0.000000 0.243301 -0.469552 4.360764 2.848951 -0.275116 4.397303 -0.870728 -9.078200 24.817342 0.000000 0.000000 0.000000 -3.075127 -0.326042 17.156603 12.867884 -0.817263 -37.011941 -6.104889 4.950202 29.085632 1.440901 0.719658 -12.552557 0.000000 0.000000 0.000000 -46.171736 -1.593566 -6.848773 -32.293325 7.131282 -6.247287 -10.906406 -23.383997 3.148190 0.000000 0.000000 0.000000 42.224537 4.008313 4.340708 35.703770 -2.635611 -7.288877 7.290249 33.201265 3.624283 0.000000 0.000000 0.000000 
0.000666 1.157005 0.000061 -1.946986 2.498691 -2.928823 3.983864 0.397988 8.778036 -4.404178 0.423308 -6.264876 3.777278 13.545243 26.826593 0.000000 0.000000 0.000000 0.166885 -0.482417 4.548775 2.869948 -0.279013 3.678940 -1.504099 -9.903491 23.418820 0.000000 0.000000 0.000000 -2.111318 -0.427610 16.338574 10.215348 -0.365509 -37.778382 -4.976826 3.396968 30.977506 1.056735 0.695836 -12.400457 0.000000 0.000000 0.000000 -47.314931 -1.718285 -5.574252 -31.286228 5.756384 -6.146840 -10.073153 -23.173435 2.996894 0.000000 0.000000 0.000000 41.632306 4.923978 4.005726 36.131335 -3.496827 -7.433999 7.131532 32.220461 3.387178 0.000000 0.000000 0.000000 
0.000870 1.160045 0.000204 -2.080009 2.247764 -2.844369 4.044790 0.413675 9.110408 -4.347045 0.419421 -6.844025 4.185925 13.999677 26.937940 0.000000 0.000000 0.000000 0.228575 -0.523926 4.915114 3.194351 -0.328194 3.164491 -2.017104 -10.860160 24.235161 0.000000 0.000000 0.000000 -2.076255 -0.420897 16.096862 11.286899 -0.381046 -38.915930 -5.533160 4.275867 31.986505 1.872086 0.331276 -14.252705 0.000000 0.000000 0.000000 -47.913279 -1.321844 -6.469259 -30.459792 6.043643 -5.989534 -10.982475 -23.282297 3.189300 0.000000 0.000000 0.000000 42.099346 4.939349 4.480126 35.770082 -3.029486 -7.440716 6.515834 31.594473 3.157531 0.000000 0.000000 0.000000 
0.001047 1.162017 0.000433 -2.314037 1.857660 -3.032975 4.355624 0.398823 9.194464 -4.363540 0.427440 -6.445147 3.968358 13.721793 27.194314 0.000000 0.000000 0.000000 0.391962 -0.577168 5.336991 3.155274 -0.324473 2.606686 -1.705149 -10.542867 24.629352 0.000000 0.000000 0.000000 -2.127419 -0.416096 16.316083 12.576128 -0.635940 -38.197000 -6.080220 5.399125 30.432955 2.240591 0.011123 -12.511281 0.000000 0.000000 0.000000 -47.535620 -1.184110 -7.197281 -29.967963 6.295358 -5.708948 -12.321705 -23.242089 3.424770 0.000000 0.000000 0.000000 42.160667 4.431269 4.458959 35.873727 -3.313807 -7.512046 6.451460 30.980806 3.077569 0.000000 0.000000 0.000000 
0.001211 1.163740 0.000785 -2.481602 1.796772 -3.197094 4.500878 0.386833 9.187187 -4.155184 0.419794 -6.085118 4.006684 13.732872 26.975222 0.000000 0.000000 0.000000 0.558337 -0.597068 5.426005 3.150147 -0.323090 2.641989 -1.694228 -10.600947 25.000072 0.000000 0.000000 0.000000 -2.069678 -0.421137 16.164960 12.632402 -0.586526 -38.705996 -5.932650 5.517790 31.000959 2.334643 0.071976 -13.582801 0.000000 0.000000 0.000000 -47.518132 -1.447709 -6.971652 -29.655437 6.427053 -5.701897 -13.014053 -23.379485 3.583049 0.000000 0.000000 0.000000 42.455738 4.296620 4.422158 35.883899 -3.344177 -7.589197 5.682944 30.654143 2.849638 0.000000 0.000000 0.000000 
